<svg data-v-fde0c5aa="" xmlns="http://www.w3.org/2000/svg" viewBox="0 0 300 300" class="font"><!----><defs data-v-fde0c5aa=""><!----></defs><rect data-v-fde0c5aa="" fill="#FFFFFF" x="0" y="0" width="300px" height="300px" class="logo-background-square"></rect><defs data-v-fde0c5aa=""><!----></defs><g data-v-fde0c5aa="" id="3107a5cb-75fc-4cca-934f-9a2d8ed99da0" fill="#012970" transform="matrix(2.891692885188646,0,0,2.891692885188646,37.97581501483961,129.70031588263404)"><path d="M3.49 10.05C3.07 10.05 2.79 10.00 2.42 9.88L1.99 8.19C1.30 8.19 0.74 8.41 0.74 9.16C0.74 10.53 2.83 10.74 3.58 10.74C6.05 10.74 7.07 9.62 7.07 8.08C7.07 6.45 5.82 5.68 4.35 4.94C3.56 4.54 2.00 3.89 2.00 2.88C2.00 1.96 2.62 1.15 3.88 1.15C4.30 1.15 4.58 1.20 4.94 1.32L5.38 3.01C6.06 3.01 6.62 2.59 6.62 1.90C6.62 0.53 4.65 0.46 3.89 0.46C2.14 0.46 0.70 1.27 0.70 2.98C0.70 4.89 1.92 5.46 2.98 6.01C3.99 6.52 5.78 7.17 5.78 8.39C5.78 9.46 4.86 10.05 3.49 10.05ZM8.20 8.15C8.20 9.65 9.10 10.50 10.63 10.50C11.72 10.50 12.56 9.74 12.88 8.75L12.60 10.35L12.60 11.16C12.60 12.74 11.72 13.26 10.74 13.26C9.70 13.26 9.17 12.74 9.17 12.17C9.17 11.82 9.38 11.44 9.80 11.21L9.52 10.79C8.93 11.00 8.26 11.54 8.26 12.25C8.26 13.41 9.41 14 10.74 14C12.40 14 13.92 13.22 13.92 11.10L13.92 3.96L13.43 3.81L12.60 3.96L12.60 7.21C12.60 9.16 11.56 9.98 10.86 9.98C10.29 9.98 9.52 9.69 9.52 8.41L9.52 4.45C9.52 4.45 9.53 3.79 8.76 3.79C8.30 3.79 7.80 3.91 7.48 3.95L7.48 4.45L8.20 4.45ZM17.40 4.47C17.40 4.47 17.42 3.81 16.65 3.81C16.18 3.81 15.57 3.91 15.25 3.96L15.25 4.47L16.09 4.47L16.09 10.50L17.40 10.50L17.40 7.39C17.40 5.32 18.44 4.47 19.15 4.47C19.85 4.47 20.29 5.05 20.29 5.95L20.29 9.38C20.29 10.36 20.97 10.65 21.49 10.65C21.87 10.65 22.23 10.60 22.43 10.50L22.43 10.00C21.99 10.00 21.60 9.79 21.60 9.35L21.60 6.30C21.60 4.76 20.96 3.81 19.43 3.81C18.70 3.81 17.75 4.45 17.40 5.43ZM26.14 10.65C26.82 10.65 27.54 10.28 27.86 9.60C28.06 10.39 28.60 10.65 29.09 10.65C29.36 10.65 29.64 10.61 29.86 10.50L29.86 10.00C29.43 10.00 29.09 9.79 29.09 9.35L29.09 3.96L28.60 3.81L27.78 4.03C27.43 3.85 26.98 3.81 26.56 3.81C24.79 3.81 23.35 4.90 23.35 7.57C23.35 9.83 24.77 10.65 26.14 10.65ZM27.78 7.77C27.78 9.37 26.98 10.00 26.28 10.00C25.51 10.00 24.71 9.45 24.71 7.50C24.71 5.08 25.73 4.33 26.63 4.33C27.05 4.33 27.33 4.40 27.78 4.65ZM35.42 5.64C35.81 5.64 36.13 5.32 36.13 4.94C36.13 4.16 35.13 3.81 34.09 3.81C31.91 3.81 30.49 5.07 30.49 7.24C30.49 9.31 31.58 10.65 34.06 10.65C34.97 10.65 35.71 10.37 36.32 9.83L35.99 9.37C35.42 9.73 34.87 10.00 34.15 10.00C32.40 10.00 31.96 8.64 31.96 6.96C31.96 5.31 32.73 4.33 34.13 4.33C34.52 4.33 34.73 4.40 34.99 4.49ZM40.99 7.31L40.01 7.04C40.01 7.04 42.67 6.57 42.67 5.11C42.67 4.41 42.25 3.81 41.02 3.81C40.14 3.81 39.09 4.52 38.72 5.59L38.99 4.47L38.99 0.70C38.99 0.70 39.00 0.04 38.23 0.04C37.77 0.04 37.16 0.14 36.83 0.20L36.83 0.70L37.67 0.70L37.67 10.50L38.99 10.50L38.99 7.25C38.99 5.18 40.22 4.33 40.82 4.33C41.30 4.33 41.65 4.56 41.65 5.14C41.65 6.08 39.86 6.72 39.42 6.86L39.42 7.36L41.27 10.00C41.64 10.53 42.17 10.65 42.62 10.65C43.09 10.65 43.48 10.50 43.48 10.50L43.48 10.00C43.48 10.00 42.88 10.00 42.67 9.70ZM47.68 3.19L48.27 3.29L49.04 1.29L50.95 1.29L50.95 9.45L49.73 9.91L49.83 10.50L53.55 10.50L53.65 9.91L52.43 9.45L52.43 1.29L54.33 1.29L55.10 3.29L55.69 3.19L55.69 0.70L47.68 0.70ZM62.54 5.78C62.54 4.34 61.45 3.81 59.82 3.81C57.86 3.81 56.46 5.07 56.46 7.22C56.46 9.30 57.62 10.65 60.10 10.65C61.01 10.65 61.91 10.37 62.51 9.83L62.19 9.37C61.61 9.73 60.93 10.00 60.19 10.00C58.91 10.00 58.20 9.14 58.00 7.87C60.37 7.87 62.54 7.49 62.54 5.78ZM57.95 7.11C57.95 5.52 58.56 4.33 59.77 4.33C60.73 4.33 61.22 4.73 61.22 5.61C61.22 6.65 59.78 7.36 57.95 7.38ZM68.32 5.64C68.71 5.64 69.03 5.32 69.03 4.94C69.03 4.16 68.03 3.81 66.99 3.81C64.81 3.81 63.39 5.07 63.39 7.24C63.39 9.31 64.48 10.65 66.96 10.65C67.87 10.65 68.61 10.37 69.22 9.83L68.89 9.37C68.32 9.73 67.77 10.00 67.05 10.00C65.30 10.00 64.86 8.64 64.86 6.96C64.86 5.31 65.63 4.33 67.03 4.33C67.42 4.33 67.63 4.40 67.89 4.49ZM70.50 0.70L70.50 10.50L71.82 10.50L71.82 6.90C71.82 4.89 72.80 4.47 73.43 4.47C74.06 4.47 74.63 4.72 74.63 5.74L74.63 9.38C74.63 10.36 75.32 10.65 75.84 10.65C76.22 10.65 76.58 10.60 76.78 10.50L76.78 10.00C76.34 10.00 75.95 9.79 75.95 9.35L75.95 6.10C75.95 4.62 75.10 3.81 73.56 3.81C72.73 3.81 71.89 4.35 71.57 5.50L71.82 4.17L71.82 0.70C71.82 0.70 71.83 0.04 71.06 0.04C70.60 0.04 69.99 0.14 69.66 0.20L69.66 0.70Z"></path></g><!----><!----></svg>